<svg width="34" height="29" viewBox="0 0 34 29" fill="none" xmlns="http://www.w3.org/2000/svg">
<path d="M29.9418 3.68119C29.2016 2.94062 28.3227 2.35314 27.3553 1.95233C26.388 1.55152 25.3512 1.34521 24.3041 1.34521C23.257 1.34521 22.2202 1.55152 21.2529 1.95233C20.2855 2.35314 19.4067 2.94062 18.6664 3.68119L17.1302 5.21743L15.594 3.68119C14.0988 2.18599 12.0708 1.34599 9.95628 1.34599C7.84174 1.34599 5.81381 2.18599 4.3186 3.68119C2.8234 5.1764 1.9834 7.20433 1.9834 9.31887C1.9834 11.4334 2.8234 13.4613 4.3186 14.9566L5.85483 16.4928L17.1302 27.7681L28.4056 16.4928L29.9418 14.9566C30.6824 14.2163 31.2698 13.3374 31.6706 12.3701C32.0715 11.4028 32.2778 10.366 32.2778 9.31887C32.2778 8.27179 32.0715 7.23497 31.6706 6.26763C31.2698 5.3003 30.6824 4.42142 29.9418 3.68119Z" stroke="#323135" stroke-width="2.17391" stroke-linecap="round" stroke-linejoin="round"/>
</svg>
