<svg width="56" height="49" viewBox="0 0 56 49" fill="none" xmlns="http://www.w3.org/2000/svg">
<path d="M40.5 0.5C35.3375 0.5 30.8175 2.72 28 6.4725C25.1825 2.72 20.6625 0.5 15.5 0.5C11.3906 0.504632 7.45077 2.13915 4.54496 5.04496C1.63915 7.95077 0.00463184 11.8906 0 16C0 33.5 25.9475 47.665 27.0525 48.25C27.3437 48.4067 27.6693 48.4887 28 48.4887C28.3307 48.4887 28.6563 48.4067 28.9475 48.25C30.0525 47.665 56 33.5 56 16C55.9954 11.8906 54.3609 7.95077 51.455 5.04496C48.5492 2.13915 44.6094 0.504632 40.5 0.5ZM28 44.2C23.435 41.54 4 29.4225 4 16C4.00397 12.9512 5.21685 10.0285 7.37266 7.87266C9.52846 5.71685 12.4512 4.50397 15.5 4.5C20.3625 4.5 24.445 7.09 26.15 11.25C26.3007 11.6168 26.557 11.9306 26.8864 12.1514C27.2158 12.3722 27.6034 12.4901 28 12.4901C28.3966 12.4901 28.7842 12.3722 29.1136 12.1514C29.443 11.9306 29.6993 11.6168 29.85 11.25C31.555 7.0825 35.6375 4.5 40.5 4.5C43.5488 4.50397 46.4715 5.71685 48.6273 7.87266C50.7832 10.0285 51.996 12.9512 52 16C52 29.4025 32.56 41.5375 28 44.2Z" fill="#A7A5AF"/>
</svg>
