<svg width="37" height="38" viewBox="0 0 37 38" fill="none" xmlns="http://www.w3.org/2000/svg">
<path fill-rule="evenodd" clip-rule="evenodd" d="M18.4995 2.61902C11.9978 2.61902 6.69002 7.79632 6.69002 14.2282C6.69002 17.9163 8.20892 20.7874 11.0873 23.2652C12.9389 24.8591 16.2558 28.2412 17.5315 30.274C17.7372 30.6016 18.0946 30.803 18.4814 30.8092C18.8682 30.8153 19.2319 30.6254 19.4478 30.3044C20.8094 28.2803 24.0812 24.8411 25.9118 23.2652C28.7902 20.7874 30.3091 17.9163 30.3091 14.2282C30.3091 7.79632 25.0012 2.61902 18.4995 2.61902ZM23.071 14.4285C23.071 16.9533 21.0243 19 18.4995 19C15.9748 19 13.9281 16.9533 13.9281 14.4285C13.9281 11.9038 15.9748 9.85711 18.4995 9.85711C21.0243 9.85711 23.071 11.9038 23.071 14.4285Z" fill="#452CE8"/>
<path fill-rule="evenodd" clip-rule="evenodd" d="M4.89427 33.2913L7.94189 25.6722L10.7715 26.8041L8.55981 32.3334H28.4393L26.2276 26.8041L29.0572 25.6722L32.1049 33.2913C32.2927 33.7608 32.2353 34.2928 31.9519 34.7115C31.6684 35.1302 31.1957 35.381 30.69 35.381H6.30909C5.80346 35.381 5.33075 35.1302 5.04728 34.7115C4.7638 34.2928 4.70648 33.7608 4.89427 33.2913Z" fill="#452CE8"/>
</svg>
