<svg width="81" height="80" viewBox="0 0 81 80" fill="none" xmlns="http://www.w3.org/2000/svg">
<circle cx="40.5" cy="40" r="40" fill="#EBEFFF"/>
<path fill-rule="evenodd" clip-rule="evenodd" d="M40.4997 23.619C33.998 23.619 28.6902 28.7963 28.6902 35.2282C28.6902 38.9163 30.2091 41.7874 33.0875 44.2652C34.9391 45.8591 38.256 49.2412 39.5317 51.274C39.7373 51.6016 40.0948 51.803 40.4816 51.8092C40.8684 51.8153 41.2321 51.6254 41.448 51.3044C42.8096 49.2803 46.0813 45.8411 47.912 44.2652C50.7903 41.7874 52.3092 38.9163 52.3092 35.2282C52.3092 28.7963 47.0014 23.619 40.4997 23.619ZM45.0712 35.4285C45.0712 37.9533 43.0245 40 40.4997 40C37.975 40 35.9283 37.9533 35.9283 35.4285C35.9283 32.9038 37.975 30.8571 40.4997 30.8571C43.0245 30.8571 45.0712 32.9038 45.0712 35.4285Z" fill="#452CE8"/>
<path fill-rule="evenodd" clip-rule="evenodd" d="M26.8944 54.2913L29.942 46.6722L32.7717 47.8041L30.56 53.3334H50.4395L48.2278 47.8041L51.0574 46.6722L54.105 54.2913C54.2928 54.7608 54.2355 55.2928 53.952 55.7115C53.6685 56.1302 53.1958 56.381 52.6902 56.381H28.3092C27.8036 56.381 27.3309 56.1302 27.0474 55.7115C26.764 55.2928 26.7066 54.7608 26.8944 54.2913Z" fill="#452CE8"/>
</svg>
